<?xml version="1.0" encoding="UTF-8"?>
<svg version="1.1" xmlns="http://www.w3.org/2000/svg" width="140" height="140">
<path d="M0 0 C46.2 0 92.4 0 140 0 C140 46.2 140 92.4 140 140 C93.8 140 47.6 140 0 140 C0 93.8 0 47.6 0 0 Z " fill="#100C05" transform="translate(0,0)"/>
<path d="M0 0 C5.15852881 1.78564459 6.66336733 5.49134963 9.25 10.125 C9.62656738 10.79885742 10.00313477 11.47271484 10.39111328 12.16699219 C11.6503221 14.43704518 12.8918501 16.71569179 14.125 19 C14.53081299 19.74958984 14.93662598 20.49917969 15.35473633 21.27148438 C15.73009521 21.98369141 16.1054541 22.69589844 16.4921875 23.4296875 C16.8310498 24.06890137 17.16991211 24.70811523 17.51904297 25.36669922 C18.25 27.125 18.25 27.125 18.25 30.125 C19.8339762 28.83412176 21.41712785 27.54223178 23 26.25 C23.99773437 25.43917969 24.99546875 24.62835938 26.0234375 23.79296875 C28.21097805 22.00116082 30.35453464 20.16963457 32.4765625 18.30078125 C33.00282227 17.84364746 33.52908203 17.38651367 34.07128906 16.91552734 C35.5623503 15.61705761 37.04313709 14.30681797 38.5234375 12.99609375 C41.49218482 10.95880153 42.73961994 10.55090037 46.25 11.125 C48.5625 12.6875 48.5625 12.6875 50.25 15.125 C50.7808444 21.22574912 49.34684527 26.57618007 47.75 32.4375 C47.48590332 33.42210205 47.22180664 34.4067041 46.94970703 35.42114258 C44.77555614 43.41368172 42.48958002 51.37434658 40.125 59.3125 C39.80080078 60.42858643 39.47660156 61.54467285 39.14257812 62.69458008 C38.82482422 63.73767334 38.50707031 64.7807666 38.1796875 65.85546875 C37.90366699 66.77739014 37.62764648 67.69931152 37.34326172 68.64916992 C36.02781249 71.62817186 34.7907511 73.07869407 32.25 75.125 C29.29701233 75.64639282 29.29701233 75.64639282 25.81665039 75.67431641 C23.85925682 75.70291245 23.85925682 75.70291245 21.86231995 75.73208618 C20.44076428 75.73156331 19.01920857 75.72968912 17.59765625 75.7265625 C16.13561009 75.73433972 14.67356843 75.74300974 13.21153259 75.75253296 C10.14909204 75.7674449 7.08711266 75.76688475 4.0246582 75.75634766 C0.10550526 75.74475824 -3.81175717 75.77861813 -7.7305975 75.825037 C-10.7496285 75.85454376 -13.76820577 75.85625124 -16.78735542 75.85001755 C-18.231835 75.85104242 -19.67634049 75.86148952 -21.12067986 75.88164139 C-32.3402554 76.01897323 -32.3402554 76.01897323 -35.72550964 73.87225342 C-38.89469498 70.24864443 -40.08832544 65.71043507 -41.1875 61.125 C-41.59863889 59.53507361 -42.01011328 57.94523395 -42.421875 56.35546875 C-42.63392578 55.51419434 -42.84597656 54.67291992 -43.06445312 53.80615234 C-44.29337729 48.99986844 -45.62391324 44.22118864 -46.9375 39.4375 C-47.43120424 37.62115208 -47.92470392 35.80474855 -48.41796875 33.98828125 C-49.21538849 31.05240409 -50.03962328 28.12821364 -50.90234375 25.2109375 C-51.8857507 21.63079237 -52.16819172 18.8190269 -51.75 15.125 C-49.87615434 12.41833405 -48.7687526 11.32910861 -45.52734375 10.6796875 C-41.32161359 11.35402398 -39.06519386 13.85924956 -36 16.6875 C-34.76442261 17.78933436 -33.5274424 18.88959764 -32.2890625 19.98828125 C-31.68868164 20.52533691 -31.08830078 21.06239258 -30.46972656 21.61572266 C-27.03673402 24.62860737 -23.4000854 27.3826078 -19.75 30.125 C-19.62923096 29.55966553 -19.50846191 28.99433105 -19.3840332 28.41186523 C-18.18580598 24.09003449 -15.94245629 20.18307097 -13.9375 16.1875 C-13.49857422 15.29353516 -13.05964844 14.39957031 -12.60742188 13.47851562 C-6.00964875 0.27316585 -6.00964875 0.27316585 0 0 Z " fill="#E5AE23" transform="translate(67.75,18.875)"/>
<path d="M0 0 C0.66 0 1.32 0 2 0 C2.34780518 0.68626465 2.69561035 1.3725293 3.05395508 2.07958984 C4.63209006 5.18223003 6.22211996 8.27861995 7.8125 11.375 C8.35970703 12.45523438 8.90691406 13.53546875 9.47070312 14.6484375 C10.00244141 15.6796875 10.53417969 16.7109375 11.08203125 17.7734375 C11.56905518 18.72653809 12.0560791 19.67963867 12.55786133 20.66162109 C13.93445572 23.25748648 13.93445572 23.25748648 17 25 C22.11675025 25.66510161 22.11675025 25.66510161 26.81884766 23.97705078 C28.57692751 22.58340781 30.19761217 21.11950655 31.8125 19.5625 C37.73925781 14.08691406 37.73925781 14.08691406 41 13 C40.76216797 13.84304687 40.76216797 13.84304687 40.51953125 14.703125 C39.21305507 19.4093265 37.96073844 24.12466872 36.79296875 28.8671875 C36.57987061 29.73182617 36.36677246 30.59646484 36.1472168 31.48730469 C35.72487849 33.2085205 35.30562595 34.93049726 34.88989258 36.65332031 C34.68904053 37.47155273 34.48818848 38.28978516 34.28125 39.1328125 C34.01924805 40.21393311 34.01924805 40.21393311 33.75195312 41.31689453 C32.64816593 45.25540793 31.29345406 49.11963783 30 53 C10.86 53 -8.28 53 -28 53 C-32.725 36.4625 -32.725 36.4625 -34.625 29.625 C-34.82867187 28.89667969 -35.03234375 28.16835938 -35.2421875 27.41796875 C-36.57364694 22.62983578 -37.81258522 17.8259151 -39 13 C-35.32206751 14.56525964 -32.78787492 16.85396108 -29.875 19.5625 C-25.29578392 23.80880571 -23.40035467 25.07678653 -17.0703125 25.42578125 C-14.08984423 24.81281702 -13.01125024 23.24675233 -11 21 C-9.4933719 18.61768684 -9.4933719 18.61768684 -8.203125 16.015625 C-7.71972656 15.08105469 -7.23632812 14.14648438 -6.73828125 13.18359375 C-6.24714844 12.21550781 -5.75601563 11.24742188 -5.25 10.25 C-4.74339844 9.26644531 -4.23679688 8.28289063 -3.71484375 7.26953125 C-2.46971866 4.84975985 -1.23173504 2.42660702 0 0 Z " fill="#181306" transform="translate(66,32)"/>
<path d="M0 0 C0.66846954 -0.00350464 1.33693909 -0.00700928 2.02566528 -0.01062012 C4.24060378 -0.01943945 6.45522413 -0.01358709 8.67016602 -0.00683594 C10.20711834 -0.00818269 11.74407025 -0.01012331 13.28102112 -0.01263428 C16.50493417 -0.01558594 19.72873652 -0.0112872 22.95263672 -0.00195312 C27.08663229 0.00943193 31.22036791 0.00288832 35.3543539 -0.00909805 C38.52934224 -0.01632373 41.70426892 -0.01402531 44.87925911 -0.00884247 C46.40350437 -0.00750743 47.9277552 -0.0091486 49.45199394 -0.01380157 C51.58273014 -0.01887743 53.71304518 -0.01114161 55.84375 0 C57.66337502 0.00238678 57.66337502 0.00238678 59.51976013 0.00482178 C62.48657227 0.25878906 62.48657227 0.25878906 65.48657227 2.25878906 C65.86157227 5.25878906 65.86157227 5.25878906 65.48657227 8.25878906 C61.85641845 10.67889161 60.165447 10.51190941 55.84375 10.51757812 C55.17352814 10.52108276 54.50330627 10.5245874 53.81277466 10.52819824 C51.59846629 10.53699755 49.38447761 10.5311736 47.17016602 10.52441406 C45.6322473 10.52576108 44.094329 10.52770191 42.55641174 10.5302124 C39.3342788 10.53316108 36.11225677 10.5288737 32.89013672 10.51953125 C28.75495056 10.50812721 24.62002374 10.51470371 20.48484707 10.52667618 C17.30990128 10.53389354 14.13501728 10.5316076 10.96006966 10.52642059 C9.43499788 10.52508425 7.90992054 10.52673129 6.38485527 10.5313797 C4.25641834 10.53644405 2.12840526 10.52873689 0 10.51757812 C-1.21228775 10.51598694 -2.4245755 10.51439575 -3.67359924 10.51275635 C-6.51342773 10.25878906 -6.51342773 10.25878906 -8.51342773 8.25878906 C-8.76342773 5.25878906 -8.76342773 5.25878906 -8.51342773 2.25878906 C-5.70456485 -0.55007382 -3.93458785 0.00516434 0 0 Z " fill="#DBA721" transform="translate(38.513427734375,102.7412109375)"/>
</svg>
